# xmcd
#
# Track frame offsets:
#	150
#	24327
#	47519
#	71427
#	89138
#	106934
#	131286
#	159082
#	182967
#	211344
#	238150
#	274733
#	301023
#	321281
#
# Disc length: 4666 seconds
#
# Revision: 1
# Processed by: cddbd v1.5.2PL0 Copyright (c) Steve Scherf et al.
# Submitted via: audiograbber 1.83.01
#
DISCID=b712380e
DTITLE=Liz Green - Live In Mannheim
DYEAR=2010
DGENRE=
TTITLE0=Midnight Blues
TTITLE1=The Wall
TTITLE2=Displacement Song
TTITLE3=Bad Luck Boy
TTITLE4=Joes Bird Blues
TTITLE5=Hey Joe
TTITLE6=Rag And Bone
TTITLE7=Penelope
TTITLE8=Bad Medicine
TTITLE9=Ramblin Man
TTITLE10=Gallows
TTITLE11=Dying Crapshooters Blues
TTITLE12=Luis
TTITLE13=The Quiet
EXTD=
EXTT0=
EXTT1=
EXTT2=
EXTT3=
EXTT4=
EXTT5=
EXTT6=
EXTT7=
EXTT8=
EXTT9=
EXTT10=
EXTT11=
EXTT12=
EXTT13=
PLAYORDER=
